<?xml version="1.0" standalone="no"?>
<!DOCTYPE svg PUBLIC "-//W3C//DTD SVG 20010904//EN"
 "http://www.w3.org/TR/2001/REC-SVG-20010904/DTD/svg10.dtd">
<svg version="1.0" xmlns="http://www.w3.org/2000/svg"
 width="709.000000pt" height="295.000000pt" viewBox="0 0 709.000000 295.000000"
 preserveAspectRatio="xMidYMid meet">

<g transform="translate(0.000000,295.000000) scale(0.100000,-0.100000)"
fill="#000000" stroke="none">
<path d="M2235 2496 c-135 -26 -249 -83 -418 -208 -64 -49 -127 -88 -138 -88
-12 0 -33 9 -48 19 -38 27 -220 99 -300 118 -104 25 -269 22 -361 -6 -96 -29
-238 -97 -323 -154 l-66 -45 -109 114 c-83 88 -114 114 -134 114 -32 0 -45
-16 -48 -55 -1 -16 -2 -211 -1 -432 l1 -403 3255 0 3255 0 0 434 c0 382 -2
436 -16 450 -8 9 -22 16 -31 16 -8 0 -69 -52 -134 -116 -80 -78 -122 -113
-131 -108 -7 4 -46 29 -86 55 -75 49 -235 116 -332 140 -30 8 -98 13 -150 13
-81 0 -110 -6 -195 -34 -55 -19 -142 -56 -193 -82 -51 -26 -97 -48 -102 -48
-4 0 -39 24 -76 53 -74 57 -218 148 -299 190 -188 94 -392 92 -603 -8 -82 -39
-224 -129 -292 -185 -96 -79 -82 -78 -211 -11 -328 169 -521 170 -854 5 -61
-29 -114 -54 -119 -54 -5 0 -32 20 -60 44 -155 132 -425 266 -565 280 -25 3
-77 -1 -116 -8z m219 -116 c32 -11 101 -42 155 -70 102 -54 275 -175 269 -189
-2 -5 -34 -32 -73 -61 -116 -87 -259 -216 -374 -336 l-109 -114 -68 82 c-94
116 -295 312 -392 383 -64 47 -78 62 -69 73 18 22 186 137 260 177 38 21 94
46 125 56 79 25 202 25 276 -1z m2451 5 c86 -22 204 -84 327 -172 l107 -76
-42 -30 c-190 -136 -329 -250 -484 -399 -56 -54 -106 -98 -111 -98 -6 0 -53
49 -107 109 -86 97 -264 260 -388 357 l-46 36 47 40 c122 102 299 201 414 232
71 19 210 20 283 1z m1210 -142 c88 -28 305 -149 305 -170 0 -11 -458 -468
-463 -463 -2 3 -43 55 -90 115 -47 61 -144 173 -215 250 -72 77 -128 143 -126
147 10 16 100 56 208 93 157 54 271 62 381 28z m-4869 6 c110 -19 344 -105
344 -125 0 -3 -118 -123 -262 -265 l-262 -259 -27 27 c-94 97 -379 420 -379
430 0 15 57 52 170 110 155 80 286 105 416 82z m2454 -20 c92 -25 265 -108
265 -126 0 -7 -92 -119 -205 -249 l-205 -237 -237 244 c-131 134 -238 247
-238 251 0 4 28 22 62 39 210 106 373 129 558 78z m-3218 -144 c9 -17 4 -25
-38 -62 -27 -24 -52 -43 -56 -43 -5 0 -8 48 -8 107 l0 107 46 -44 c25 -25 50
-54 56 -65z m6218 -7 l0 -112 -54 53 -55 54 47 58 c26 32 50 58 55 58 4 1 7
-49 7 -111z m-4941 -60 c129 -96 200 -160 312 -280 65 -71 123 -137 129 -148
11 -20 6 -20 -490 -20 -318 0 -500 4 -500 10 0 25 458 479 484 480 5 0 34 -19
65 -42z m3749 -50 c179 -189 332 -368 332 -389 0 -5 -199 -9 -505 -9 -312 0
-505 4 -505 10 0 29 544 469 582 470 9 0 52 -37 96 -82z m-2298 -155 l225
-228 -247 -3 c-137 -1 -359 -1 -495 0 l-248 3 145 144 c146 144 349 311 379
311 9 0 118 -102 241 -227z m1015 109 c120 -100 327 -300 347 -336 8 -14 -36
-16 -452 -16 -384 0 -460 2 -460 14 0 34 387 446 420 446 8 0 74 -49 145 -108z
m2357 8 c34 -39 75 -89 91 -112 26 -40 28 -47 25 -142 l-3 -101 -307 -3 c-170
-1 -308 0 -308 2 0 8 421 426 430 426 5 0 37 -32 72 -70z m-5833 -139 c100
-110 181 -205 181 -210 0 -16 -522 -15 -538 1 -8 8 -12 50 -12 122 l0 110 89
88 c49 49 91 88 94 88 3 0 87 -90 186 -199z"/>
<path d="M3002 1318 c-16 -16 -15 -48 2 -48 8 0 16 7 20 15 5 13 10 13 42 -2
36 -17 36 -17 55 6 10 13 19 27 19 32 0 15 -30 10 -36 -6 -5 -13 -9 -13 -34 0
-35 18 -52 19 -68 3z"/>
<path d="M1821 1240 c-111 -27 -157 -173 -83 -261 45 -55 134 -75 211 -48 25
9 31 16 31 41 0 27 -2 30 -22 23 -13 -4 -44 -10 -69 -12 -42 -4 -48 -2 -72 27
-20 23 -27 43 -27 74 0 83 66 125 145 92 48 -20 45 -21 45 14 0 18 -7 33 -17
39 -28 14 -104 21 -142 11z"/>
<path d="M3423 1241 c-76 -19 -113 -72 -113 -164 0 -96 64 -157 163 -157 100
0 161 61 162 160 0 94 -50 152 -140 163 -22 3 -55 2 -72 -2z m81 -62 c33 -16
50 -59 43 -116 -6 -53 -33 -83 -74 -83 -38 0 -60 17 -73 55 -21 63 2 130 50
148 23 8 27 8 54 -4z"/>
<path d="M4093 1240 c-78 -18 -123 -76 -123 -155 0 -101 64 -165 167 -165 77
0 103 13 103 51 0 26 -3 30 -17 24 -35 -14 -100 -17 -122 -5 -31 16 -54 74
-45 114 14 68 71 97 143 73 l41 -15 0 33 c0 30 -3 33 -44 44 -50 12 -57 12
-103 1z"/>
<path d="M450 1079 l0 -160 38 3 37 3 5 104 5 105 34 -78 c30 -69 36 -77 59
-74 21 2 30 15 55 73 16 39 33 74 38 79 5 6 9 -35 9 -103 l0 -112 38 3 37 3 3
158 3 158 -58 -3 -57 -3 -31 -72 c-17 -40 -34 -75 -37 -78 -3 -3 -21 30 -39
74 l-34 81 -52 0 -53 0 0 -161z"/>
<path d="M940 1080 l0 -160 110 0 110 0 0 35 0 35 -70 0 -70 0 0 35 0 35 65 0
65 0 0 30 0 30 -65 0 -65 0 0 30 0 30 70 0 70 0 0 30 0 30 -110 0 -110 0 0
-160z"/>
<path d="M1310 1080 l0 -160 40 0 40 0 0 61 0 60 32 -3 c28 -3 37 -11 63 -58
29 -52 33 -55 73 -58 23 -2 42 0 42 3 0 11 -48 101 -67 124 -19 24 -19 24 4
47 24 25 30 71 13 104 -15 27 -64 40 -156 40 l-84 0 0 -160z m160 85 c10 -12
10 -21 1 -41 -9 -21 -17 -25 -44 -22 -29 3 -32 6 -35 41 -3 36 -2 37 31 37 19
0 40 -7 47 -15z"/>
<path d="M2147 1088 c-31 -84 -57 -156 -57 -160 0 -5 18 -8 39 -8 34 0 40 4
50 30 10 29 12 30 76 30 64 0 66 -1 76 -30 10 -26 16 -30 50 -30 21 0 39 3 39
7 0 3 -26 75 -57 160 l-58 153 -50 0 -50 0 -58 -152z m131 12 l21 -60 -44 0
-44 0 21 60 c11 33 21 60 23 60 2 0 12 -27 23 -60z"/>
<path d="M2520 1080 l0 -163 93 7 c143 11 195 48 205 144 6 63 -18 114 -66
144 -30 18 -55 23 -134 26 l-98 4 0 -162z m159 89 c39 -14 51 -35 51 -89 0
-56 -34 -90 -90 -90 l-40 0 0 95 c0 93 0 95 24 95 12 0 37 -5 55 -11z"/>
<path d="M2957 1093 c-32 -82 -57 -154 -57 -161 0 -7 14 -12 35 -12 28 0 37 5
50 30 15 29 19 30 79 30 62 0 64 -1 75 -30 9 -27 14 -30 51 -30 35 0 40 3 36
18 -3 9 -30 80 -59 157 l-53 140 -50 3 -51 3 -56 -148z m142 -40 c1 -9 -13
-13 -39 -13 -22 0 -40 2 -40 5 0 2 10 30 22 62 l21 58 18 -50 c10 -28 18 -56
18 -62z"/>
<path d="M4402 1083 l3 -158 113 -3 112 -3 0 36 0 35 -70 0 -70 0 0 35 0 35
65 0 65 0 0 30 0 30 -65 0 -65 0 0 30 0 30 70 0 70 0 0 30 0 30 -115 0 -116 0
3 -157z"/>
<path d="M4780 1080 l0 -161 38 3 37 3 5 100 5 100 34 -65 c18 -35 44 -82 58
-103 22 -35 27 -38 66 -35 l42 3 3 158 3 157 -40 0 -40 0 -3 -106 -3 -105 -56
103 -55 103 -47 3 -47 3 0 -161z"/>
<path d="M5170 1210 c0 -30 1 -30 55 -30 l55 0 0 -130 0 -130 40 0 40 0 0 130
0 130 55 0 c54 0 55 0 55 30 l0 30 -150 0 -150 0 0 -30z"/>
<path d="M5582 1083 l3 -158 40 0 40 0 3 58 c3 52 5 57 26 57 27 0 46 -19 75
-77 20 -40 24 -43 61 -43 25 0 40 5 40 13 0 17 -55 110 -74 126 -14 12 -13 15
9 33 20 15 25 29 25 62 0 68 -21 80 -146 84 l-105 4 3 -159z m152 91 c19 -7
21 -45 4 -62 -7 -7 -25 -12 -40 -12 -26 0 -28 3 -28 40 0 36 3 40 24 40 13 0
31 -3 40 -6z"/>
<path d="M6035 1168 c-16 -40 -41 -107 -57 -148 -36 -96 -36 -100 8 -100 31 0
37 4 47 30 11 29 13 30 78 30 65 0 67 -1 78 -30 9 -27 14 -30 51 -30 35 0 40
3 36 18 -3 9 -30 80 -60 157 l-53 140 -51 3 -50 3 -27 -73z m114 -115 c1 -9
-13 -13 -39 -13 -22 0 -40 2 -40 4 0 4 27 82 36 106 4 10 13 -3 24 -35 10 -27
19 -56 19 -62z"/>
<path d="M6372 1083 l3 -158 113 -3 112 -3 0 36 0 35 -70 0 -70 0 0 125 0 125
-45 0 -46 0 3 -157z"/>
<path d="M2922 748 c-7 -7 -12 -18 -12 -25 0 -15 27 -18 32 -3 2 7 14 6 34 -2
38 -14 64 -5 64 22 0 23 -3 24 -30 8 -15 -10 -22 -10 -32 0 -15 15 -41 15 -56
0z"/>
<path d="M1970 725 c0 -22 4 -25 35 -25 31 0 35 3 35 25 0 22 -4 25 -35 25
-31 0 -35 -3 -35 -25z"/>
<path d="M2090 605 l0 -145 35 0 c19 0 35 4 35 9 0 5 14 3 30 -6 65 -32 130
18 130 100 0 84 -58 131 -126 102 l-34 -14 0 50 0 49 -35 0 -35 0 0 -145z
m158 -37 c3 -37 -17 -68 -43 -68 -45 0 -62 87 -23 114 31 22 62 1 66 -46z"/>
<path d="M2590 725 c0 -22 4 -25 35 -25 31 0 35 3 35 25 0 22 -4 25 -35 25
-31 0 -35 -3 -35 -25z"/>
<path d="M4920 733 c-41 -21 -57 -63 -41 -106 11 -28 25 -37 101 -59 34 -10
45 -18 45 -33 0 -18 -6 -20 -55 -19 -30 0 -65 4 -78 9 -22 7 -23 5 -20 -21 2
-24 10 -31 43 -42 94 -32 185 8 185 82 0 44 -31 71 -100 88 -44 10 -55 17 -55
33 0 16 8 21 38 23 22 2 52 -1 68 -7 28 -9 29 -9 29 19 0 35 -2 36 -70 44 -43
5 -63 3 -90 -11z"/>
<path d="M1710 600 l0 -140 35 0 35 0 0 51 c0 49 1 50 28 47 21 -2 33 -14 52
-50 l25 -48 78 0 77 0 0 105 0 105 -35 0 -35 0 0 -102 0 -103 -27 45 c-14 25
-32 53 -40 62 -13 14 -12 19 6 37 31 31 28 84 -5 110 -22 17 -41 21 -110 21
l-84 0 0 -140z m140 71 c16 -31 2 -51 -36 -51 -32 0 -34 2 -34 35 0 32 2 35
30 35 19 0 33 -7 40 -19z"/>
<path d="M3460 600 l0 -140 35 0 35 0 0 50 0 50 55 0 c69 0 105 29 105 84 0
76 -32 96 -150 96 l-80 0 0 -140z m144 74 c19 -18 19 -20 6 -45 -8 -13 -21
-19 -45 -19 -34 0 -35 1 -35 40 0 38 2 40 29 40 16 0 37 -7 45 -16z"/>
<path d="M5130 600 l0 -140 34 0 c34 0 35 1 38 48 l3 47 56 5 c85 8 121 53 97
122 -15 42 -54 58 -148 58 l-80 0 0 -140z m141 80 c41 -23 16 -70 -38 -70 -32
0 -33 1 -33 40 0 36 2 40 26 40 14 0 34 -5 45 -10z"/>
<path d="M4120 700 c0 -23 -4 -30 -20 -30 -14 0 -20 -7 -20 -21 0 -12 8 -23
20 -26 17 -5 20 -14 20 -68 0 -77 16 -95 83 -95 43 0 47 2 47 25 0 21 -5 25
-30 25 -30 0 -30 1 -30 55 l0 55 35 0 c31 0 35 3 35 25 0 22 -4 25 -35 25 -32
0 -35 2 -35 30 0 28 -3 30 -35 30 -32 0 -35 -2 -35 -30z"/>
<path d="M2418 673 c-39 -6 -76 -45 -84 -89 -16 -87 61 -148 163 -128 42 8 48
12 51 37 3 25 2 26 -23 17 -52 -20 -115 -8 -115 22 0 4 33 8 73 8 41 0 76 2
79 6 3 3 2 21 -2 41 -15 64 -69 97 -142 86z m60 -55 c21 -21 13 -28 -28 -28
-22 0 -40 4 -40 8 0 14 23 32 40 32 9 0 21 -5 28 -12z"/>
<path d="M2820 669 c-13 -6 -28 -15 -32 -22 -5 -8 -8 -6 -8 6 0 13 -8 17 -35
17 l-35 0 0 -105 0 -105 35 0 35 0 0 64 c0 76 16 100 62 94 27 -4 29 -3 26 25
-3 35 -13 40 -48 26z"/>
<path d="M2918 673 c-32 -4 -38 -8 -38 -28 0 -23 2 -24 50 -18 33 4 55 2 65
-7 24 -20 8 -30 -46 -30 -36 0 -54 -5 -69 -20 -29 -29 -26 -74 6 -99 32 -25
55 -26 94 -6 17 9 30 11 30 5 0 -5 16 -10 35 -10 l35 0 0 69 c0 78 -11 115
-37 130 -25 13 -80 19 -125 14z m92 -129 c0 -20 -24 -44 -45 -44 -27 0 -39 14
-31 35 5 14 76 22 76 9z"/>
<path d="M3173 669 c-73 -21 -98 -117 -48 -178 33 -38 95 -50 149 -27 44 18
71 71 62 121 -7 36 -50 85 -75 85 -9 0 -25 2 -36 4 -11 3 -34 0 -52 -5z m68
-49 c14 -8 19 -21 19 -53 0 -63 -32 -86 -72 -50 -24 21 -23 68 2 93 23 23 25
23 51 10z"/>
<path d="M3820 673 c-8 -3 -23 -12 -32 -21 -16 -14 -18 -13 -18 1 0 13 -9 17
-35 17 l-35 0 0 -105 0 -105 35 0 35 0 0 58 c0 71 20 105 58 100 25 -3 27 -7
28 -49 2 -58 15 -83 58 -103 39 -19 76 -20 129 -5 30 8 37 14 37 36 0 20 -4
24 -17 18 -36 -15 -103 -18 -118 -5 -28 23 -15 30 59 30 41 0 78 5 81 10 11
18 -5 68 -31 93 -44 44 -121 42 -171 -5 l-23 -21 0 31 c0 32 -8 37 -40 25z
m174 -49 c33 -13 17 -34 -24 -34 -41 0 -49 7 -28 28 13 13 28 15 52 6z"/>
<path d="M4337 665 c-63 -22 -87 -74 -64 -142 16 -50 64 -76 127 -70 122 13
140 184 22 217 -44 12 -38 12 -85 -5z m71 -51 c41 -29 22 -114 -27 -114 -27 0
-41 21 -41 61 0 34 20 69 38 69 4 0 18 -7 30 -16z"/>
<path d="M2590 565 l0 -105 35 0 35 0 0 105 0 105 -35 0 -35 0 0 -105z"/>
<path d="M4610 570 l0 -30 60 0 60 0 0 30 0 30 -60 0 -60 0 0 -30z"/>
</g>
</svg>
